<svg xmlns="http://www.w3.org/2000/svg" viewBox="0 0 64 64" role="img" aria-label="Grok Register">
  <defs>
    <linearGradient id="gr-bg" x1="8" y1="6" x2="56" y2="58" gradientUnits="userSpaceOnUse">
      <stop offset="0%" stop-color="#6ea0ff"/>
      <stop offset="55%" stop-color="#4f7dff"/>
      <stop offset="100%" stop-color="#2fd4c4"/>
    </linearGradient>
    <linearGradient id="gr-shine" x1="14" y1="10" x2="40" y2="36" gradientUnits="userSpaceOnUse">
      <stop offset="0%" stop-color="#ffffff" stop-opacity="0.35"/>
      <stop offset="100%" stop-color="#ffffff" stop-opacity="0"/>
    </linearGradient>
    <filter id="gr-soft" x="-20%" y="-20%" width="140%" height="140%">
      <feDropShadow dx="0" dy="2" stdDeviation="1.4" flood-color="#0a1630" flood-opacity="0.35"/>
    </filter>
  </defs>
  <rect x="4" y="4" width="56" height="56" rx="16" fill="url(#gr-bg)" filter="url(#gr-soft)"/>
  <rect x="4" y="4" width="56" height="56" rx="16" fill="url(#gr-shine)"/>
  <circle cx="32" cy="32" r="17.5" fill="none" stroke="rgba(6,16,24,0.18)" stroke-width="2.2"/>
  <circle cx="32" cy="32" r="17.5" fill="none" stroke="rgba(255,255,255,0.22)" stroke-width="1.2" stroke-dasharray="6 8" stroke-linecap="round"/>
  <path d="M42.2 28.2c-.7-4.8-4.7-8.4-10-8.4-5.9 0-10.5 4.5-10.5 10.7s4.6 10.7 10.5 10.7c4.1 0 7.5-2.1 9.2-5.4" fill="none" stroke="#061018" stroke-width="4.4" stroke-linecap="round" stroke-linejoin="round"/>
  <path d="M32.2 33.8h10.1v-5.4" fill="none" stroke="#061018" stroke-width="4.4" stroke-linecap="round" stroke-linejoin="round"/>
  <circle cx="45.5" cy="20.5" r="3.1" fill="#061018" opacity="0.9"/>
  <circle cx="45.5" cy="20.5" r="1.35" fill="#9ef7ea"/>
</svg>